<svg width="594" height="594" viewBox="0 0 594 594" fill="none" xmlns="http://www.w3.org/2000/svg">
<path d="M296.547 370.683C337.491 370.683 370.683 337.491 370.683 296.547C370.683 255.602 337.491 222.41 296.547 222.41C255.602 222.41 222.41 255.602 222.41 296.547C222.41 337.491 255.602 370.683 296.547 370.683Z" stroke="#0EA5E9" stroke-width="30"/>
<path d="M148.273 240.945C168.746 240.945 185.342 224.349 185.342 203.877C185.342 183.405 168.746 166.809 148.273 166.809C127.801 166.809 111.205 183.405 111.205 203.877C111.205 224.349 127.801 240.945 148.273 240.945Z" stroke="#0EA5E9" stroke-width="30"/>
<path d="M494.249 333.613C514.721 333.613 531.317 317.017 531.317 296.545C531.317 276.073 514.721 259.477 494.249 259.477C473.777 259.477 457.181 276.073 457.181 296.545C457.181 317.017 473.777 333.613 494.249 333.613Z" stroke="#0EA5E9" stroke-width="30"/>
<path d="M148.273 481.887C168.746 481.887 185.342 465.291 185.342 444.818C185.342 424.346 168.746 407.75 148.273 407.75C127.801 407.75 111.205 424.346 111.205 444.818C111.205 465.291 127.801 481.887 148.273 481.887Z" stroke="#0EA5E9" stroke-width="30"/>
<path d="M444.82 481.887C465.293 481.887 481.889 465.291 481.889 444.818C481.889 424.346 465.293 407.75 444.82 407.75C424.348 407.75 407.752 424.346 407.752 444.818C407.752 465.291 424.348 481.887 444.82 481.887Z" stroke="#0EA5E9" stroke-width="30"/>
<path d="M296.548 135.898C317.021 135.898 333.617 119.302 333.617 98.83C333.617 78.3578 317.021 61.7617 296.548 61.7617C276.076 61.7617 259.48 78.3578 259.48 98.83C259.48 119.302 276.076 135.898 296.548 135.898ZM296.548 135.898V179.145V222.391M176.074 222.415L203.875 240.949L231.677 259.484" stroke="#0EA5E9" stroke-width="30"/>
<path d="M457.176 296.547H370.684" stroke="#0EA5E9" stroke-width="30"/>
<path d="M177.921 420.125L247.115 345.988" stroke="#0EA5E9" stroke-width="30"/>
<path d="M415.17 420.125L345.976 345.988" stroke="#0EA5E9" stroke-width="30"/>
</svg>
