<svg width="594" height="594" viewBox="0 0 594 594" fill="none" xmlns="http://www.w3.org/2000/svg">
<path d="M469.533 98.832H123.562C96.2653 98.832 74.1372 120.96 74.1372 148.256V444.803C74.1372 472.099 96.2653 494.227 123.562 494.227H469.533C496.829 494.227 518.957 472.099 518.957 444.803V148.256C518.957 120.96 496.829 98.832 469.533 98.832Z" stroke="#0EA5E9" stroke-width="30"/>
<path d="M148.274 389.219L222.411 315.082L296.547 364.506L395.396 240.945" stroke="#0EA5E9" stroke-width="30"/>
<path d="M395.409 278.012C415.881 278.012 432.477 261.416 432.477 240.943C432.477 220.471 415.881 203.875 395.409 203.875C374.936 203.875 358.34 220.471 358.34 240.943C358.34 261.416 374.936 278.012 395.409 278.012Z" fill="#0EA5E9"/>
</svg>
