<svg width="594" height="594" viewBox="0 0 594 594" fill="none" xmlns="http://www.w3.org/2000/svg">
<path d="M222.41 296.547C263.354 296.547 296.546 263.355 296.546 222.41C296.546 181.466 263.354 148.273 222.41 148.273C181.465 148.273 148.273 181.466 148.273 222.41C148.273 263.355 181.465 296.547 222.41 296.547Z" stroke="#0EA5E9" stroke-width="30"/>
<path d="M98.8438 469.532C98.8438 414.941 143.1 370.684 197.693 370.684H247.117C255.781 370.684 264.099 371.964 271.829 374.343" stroke="#0EA5E9" stroke-width="30"/>
<path d="M370.683 321.242C411.628 321.242 444.82 288.05 444.82 247.105C444.82 206.161 411.628 172.969 370.683 172.969C329.738 172.969 296.546 206.161 296.546 247.105C296.546 288.05 329.738 321.242 370.683 321.242Z" stroke="#0EA5E9" stroke-width="30"/>
<path d="M494.239 494.228C494.239 439.636 449.982 395.379 395.39 395.379H345.966C291.374 395.379 247.117 439.636 247.117 494.228" stroke="#0EA5E9" stroke-width="30"/>
</svg>
