<svg width="1024" height="1022" viewBox="0 0 1024 1022" fill="none" xmlns="http://www.w3.org/2000/svg">
<rect width="1021.86" height="1021.86" fill="white"/>
<path d="M544.233 291.58C529.706 287.194 513.312 285 495.053 285C458.287 285 424.913 293.773 394.932 311.32C365.198 328.866 340.095 354.455 319.624 388.086C299.195 421.473 284.781 462.05 276.382 509.815C267.941 557.825 267.776 598.767 275.885 632.641C283.994 666.516 299.809 692.349 323.33 710.139C346.851 727.929 377.612 736.824 415.612 736.824C449.171 736.824 478.49 731.463 503.571 720.74C528.94 709.773 549.427 694.298 565.031 674.315C579.857 655.328 589.787 633.151 594.82 607.784H444.593L467.795 475.819H785.984L799.779 381.14H617.688C616.193 365.787 612.402 352.262 606.316 340.564C600.273 328.623 592.058 318.509 581.67 310.223C571.283 301.937 558.804 295.723 544.233 291.58Z" fill="#0EA5E9"/>
</svg>
