<svg width="2673" height="360" viewBox="0 0 2673 360" fill="none" xmlns="http://www.w3.org/2000/svg">
<path d="M576.85 20.9523H633.999V244.58C633.895 265.079 629.547 282.731 620.954 297.536C612.361 312.237 600.351 323.574 584.925 331.546C569.602 339.414 551.743 343.348 531.348 343.348C512.712 343.348 495.94 340.035 481.032 333.409C466.227 326.68 454.476 316.741 445.779 303.592C437.083 290.444 432.734 274.086 432.734 254.519H490.039C490.142 263.112 492.006 270.514 495.63 276.726C499.357 282.938 504.481 287.7 511.004 291.013C517.526 294.326 525.032 295.983 533.522 295.983C542.736 295.983 550.553 294.067 556.972 290.237C563.391 286.303 568.257 280.505 571.57 272.844C574.986 265.182 576.746 255.761 576.85 244.58V20.9523Z" fill="white"/>
<path d="M846.057 238.678V100.464H902.274V339H847.765V296.604H845.28C839.897 309.96 831.045 320.882 818.724 329.372C806.508 337.861 791.444 342.106 773.533 342.106C757.9 342.106 744.078 338.638 732.069 331.701C720.163 324.661 710.845 314.463 704.115 301.108C697.386 287.649 694.021 271.394 694.021 252.344V100.464H750.239V243.648C750.239 258.763 754.38 270.773 762.662 279.677C770.945 288.58 781.816 293.032 795.275 293.032C803.557 293.032 811.581 291.013 819.346 286.976C827.11 282.938 833.478 276.933 838.447 268.961C843.52 260.886 846.057 250.791 846.057 238.678Z" fill="white"/>
<path d="M1148.61 163.515L1097.37 169.105C1095.92 163.929 1093.38 159.063 1089.76 154.507C1086.24 149.952 1081.47 146.277 1075.47 143.481C1069.46 140.686 1062.11 139.288 1053.42 139.288C1041.72 139.288 1031.88 141.825 1023.91 146.898C1016.04 151.971 1012.16 158.545 1012.26 166.621C1012.16 173.557 1014.7 179.2 1019.87 183.548C1025.15 187.896 1033.85 191.468 1045.96 194.263L1086.65 202.96C1109.22 207.826 1125.99 215.539 1136.97 226.099C1148.04 236.659 1153.63 250.481 1153.74 267.564C1153.63 282.576 1149.23 295.828 1140.54 307.319C1131.94 318.708 1119.99 327.612 1104.66 334.031C1089.34 340.449 1071.74 343.659 1051.86 343.659C1022.67 343.659 999.166 337.551 981.359 325.334C963.552 313.014 952.94 295.879 949.523 273.931L1004.34 268.651C1006.83 279.418 1012.11 287.545 1020.18 293.032C1028.26 298.519 1038.77 301.263 1051.71 301.263C1065.06 301.263 1075.78 298.519 1083.85 293.032C1092.03 287.545 1096.12 280.764 1096.12 272.688C1096.12 265.855 1093.48 260.213 1088.2 255.761C1083.03 251.309 1074.95 247.893 1063.98 245.511L1023.29 236.97C1000.41 232.208 983.481 224.184 972.507 212.899C961.533 201.511 956.097 187.12 956.201 169.727C956.097 155.025 960.083 142.291 968.159 131.524C976.338 120.653 987.674 112.267 1002.17 106.365C1016.77 100.361 1033.59 97.3583 1052.64 97.3583C1080.59 97.3583 1102.59 103.311 1118.64 115.217C1134.79 127.123 1144.78 143.223 1148.61 163.515Z" fill="white"/>
<path d="M1319.21 100.464V143.947H1182.08V100.464H1319.21ZM1215.93 43.315H1272.15V267.253C1272.15 274.811 1273.29 280.608 1275.57 284.646C1277.95 288.58 1281.06 291.272 1284.89 292.722C1288.72 294.171 1292.96 294.896 1297.62 294.896C1301.14 294.896 1304.35 294.637 1307.25 294.119C1310.25 293.602 1312.53 293.136 1314.08 292.722L1323.56 336.671C1320.55 337.706 1316.26 338.845 1310.67 340.087C1305.18 341.329 1298.45 342.054 1290.48 342.261C1276.4 342.675 1263.71 340.553 1252.43 335.894C1241.14 331.132 1232.19 323.781 1225.56 313.842C1219.04 303.903 1215.83 291.479 1215.93 276.571V43.315Z" fill="white"/>
<path d="M1690.25 122.516C1687.66 114.13 1684.09 106.624 1679.53 99.9983C1675.08 93.2688 1669.7 87.5228 1663.38 82.7604C1657.17 77.9979 1650.03 74.4261 1641.95 72.0449C1633.88 69.5602 1625.08 68.3178 1615.55 68.3178C1598.47 68.3178 1583.25 72.6143 1569.89 81.2074C1556.54 89.8005 1546.03 102.431 1538.37 119.1C1530.81 135.665 1527.03 155.853 1527.03 179.666C1527.03 203.685 1530.81 224.029 1538.37 240.697C1545.93 257.366 1556.44 270.048 1569.89 278.745C1583.35 287.338 1598.99 291.634 1616.79 291.634C1632.95 291.634 1646.92 288.529 1658.72 282.317C1670.63 276.105 1679.79 267.305 1686.21 255.916C1692.63 244.424 1695.84 230.965 1695.84 215.539L1708.89 217.558H1622.54V172.522H1751.59V210.725C1751.59 237.954 1745.79 261.507 1734.2 281.385C1722.6 301.263 1706.66 316.586 1686.37 327.353C1666.08 338.016 1642.78 343.348 1616.48 343.348C1587.18 343.348 1561.46 336.774 1539.3 323.626C1517.25 310.374 1500.01 291.583 1487.59 267.253C1475.27 242.82 1469.11 213.831 1469.11 180.287C1469.11 154.611 1472.73 131.679 1479.98 111.49C1487.33 91.3017 1497.58 74.1673 1510.73 60.087C1523.88 45.9033 1539.3 35.136 1557.01 27.7853C1574.71 20.3311 1593.97 16.604 1614.78 16.604C1632.38 16.604 1648.79 19.1922 1664 24.3688C1679.22 29.4418 1692.73 36.689 1704.54 46.1104C1716.44 55.5317 1726.23 66.713 1733.89 79.6544C1741.55 92.5958 1746.57 106.883 1748.95 122.516H1690.25Z" fill="white"/>
<path d="M1956.86 238.678V100.464H2013.07V339H1958.56V296.604H1956.08C1950.7 309.96 1941.84 320.882 1929.52 329.372C1917.31 337.861 1902.24 342.106 1884.33 342.106C1868.7 342.106 1854.88 338.638 1842.87 331.701C1830.96 324.661 1821.64 314.463 1814.91 301.108C1808.18 287.649 1804.82 271.394 1804.82 252.344V100.464H1861.04V243.648C1861.04 258.763 1865.18 270.773 1873.46 279.677C1881.74 288.58 1892.61 293.032 1906.07 293.032C1914.36 293.032 1922.38 291.013 1930.14 286.976C1937.91 282.938 1944.28 276.933 1949.25 268.961C1954.32 260.886 1956.86 250.791 1956.86 238.678Z" fill="white"/>
<path d="M2070.88 339V100.464H2127.1V339H2070.88ZM2099.15 66.6095C2090.24 66.6095 2082.58 63.6589 2076.16 57.7576C2069.74 51.7528 2066.53 44.5574 2066.53 36.1713C2066.53 27.6818 2069.74 20.4864 2076.16 14.5851C2082.58 8.5803 2090.24 5.5779 2099.15 5.5779C2108.15 5.5779 2115.81 8.5803 2122.13 14.5851C2128.55 20.4864 2131.76 27.6818 2131.76 36.1713C2131.76 44.5574 2128.55 51.7528 2122.13 57.7576C2115.81 63.6589 2108.15 66.6095 2099.15 66.6095Z" fill="white"/>
<path d="M2273.43 343.193C2254.69 343.193 2237.92 338.379 2223.11 328.75C2208.31 319.122 2196.61 305.145 2188.01 286.82C2179.42 268.495 2175.12 246.236 2175.12 220.043C2175.12 193.539 2179.47 171.176 2188.17 152.954C2196.97 134.629 2208.82 120.808 2223.73 111.49C2238.64 102.069 2255.26 97.3583 2273.58 97.3583C2287.56 97.3583 2299.05 99.7395 2308.06 104.502C2317.07 109.161 2324.21 114.803 2329.49 121.429C2334.77 127.952 2338.86 134.112 2341.76 139.91H2344.09V20.9523H2400.46V339H2345.17V301.418H2341.76C2338.86 307.216 2334.67 313.376 2329.18 319.898C2323.69 326.317 2316.44 331.805 2307.44 336.36C2298.43 340.915 2287.09 343.193 2273.43 343.193ZM2289.11 297.07C2301.02 297.07 2311.16 293.86 2319.55 287.441C2327.94 280.919 2334.3 271.86 2338.65 260.265C2343 248.669 2345.17 235.158 2345.17 219.732C2345.17 204.306 2343 190.899 2338.65 179.51C2334.41 168.122 2328.09 159.27 2319.71 152.954C2311.42 146.639 2301.23 143.481 2289.11 143.481C2276.59 143.481 2266.13 146.743 2257.74 153.265C2249.36 159.788 2243.04 168.795 2238.8 180.287C2234.55 191.779 2232.43 204.927 2232.43 219.732C2232.43 234.641 2234.55 247.944 2238.8 259.643C2243.14 271.239 2249.51 280.401 2257.9 287.131C2266.39 293.757 2276.79 297.07 2289.11 297.07Z" fill="white"/>
<path d="M2565.97 343.659C2542.05 343.659 2521.4 338.689 2504 328.75C2486.71 318.708 2473.41 304.524 2464.09 286.199C2454.78 267.771 2450.12 246.081 2450.12 221.13C2450.12 196.593 2454.78 175.058 2464.09 156.526C2473.51 137.891 2486.66 123.396 2503.54 113.043C2520.41 102.587 2540.24 97.3583 2563.02 97.3583C2577.72 97.3583 2591.59 99.7395 2604.64 104.502C2617.79 109.161 2629.38 116.408 2639.42 126.243C2649.57 136.079 2657.54 148.606 2663.34 163.825C2669.14 178.941 2672.04 196.955 2672.04 217.869V235.106H2476.52V197.214H2618.15C2618.04 186.447 2615.71 176.87 2611.16 168.484C2606.6 159.995 2600.24 153.317 2592.06 148.451C2583.98 143.585 2574.56 141.152 2563.79 141.152C2552.3 141.152 2542.21 143.947 2533.51 149.538C2524.81 155.025 2518.03 162.272 2513.17 171.28C2508.4 180.183 2505.97 189.967 2505.87 200.631V233.709C2505.87 247.582 2508.4 259.488 2513.48 269.427C2518.55 279.263 2525.64 286.82 2534.75 292.1C2543.86 297.277 2554.53 299.865 2566.74 299.865C2574.92 299.865 2582.33 298.726 2588.95 296.449C2595.58 294.067 2601.32 290.599 2606.19 286.044C2611.06 281.488 2614.73 275.846 2617.22 269.116L2669.71 275.018C2666.39 288.891 2660.08 301.004 2650.76 311.357C2641.55 321.607 2629.74 329.579 2615.35 335.273C2600.96 340.864 2584.5 343.659 2565.97 343.659Z" fill="white"/>
<path d="M218.472 5.24287C206.902 1.74774 193.845 0 179.302 0C150.02 2.73696e-05 123.44 6.99019 99.5617 20.9706C75.88 34.9512 55.8868 55.3397 39.5825 82.1357C23.3122 108.738 11.8318 141.068 5.1431 179.126C-1.57977 217.379 -1.71158 250 4.74682 276.991C11.2052 303.981 23.8007 324.564 42.5342 338.738C61.2677 352.913 85.7673 360 116.032 360C142.759 360 166.111 355.728 186.086 347.185C206.291 338.447 222.608 326.117 235.036 310.194C246.844 295.066 254.752 277.396 258.761 257.185H139.114L157.593 152.039H411.013L422 76.6019H276.974C275.783 64.3689 272.764 53.592 267.917 44.2717C263.104 34.7572 256.561 26.6987 248.288 20.0968C240.015 13.4949 230.076 8.54384 218.472 5.24287Z" fill="#0EA5E9"/>
</svg>
