<svg width="513" height="511" viewBox="0 0 513 511" fill="none" xmlns="http://www.w3.org/2000/svg">
<rect width="511" height="511" fill="white"/>
<path d="M272.115 145.292C264.852 143.097 256.656 142 247.528 142C229.148 142 212.464 146.388 197.476 155.165C182.611 163.943 170.061 176.743 159.827 193.565C149.614 210.266 142.408 230.563 138.21 254.456C133.99 278.471 133.907 298.951 137.961 315.896C142.015 332.841 149.921 345.763 161.68 354.662C173.439 363.561 188.817 368.01 207.814 368.01C224.59 368.01 239.248 365.328 251.786 359.964C264.469 354.479 274.711 346.738 282.512 336.742C289.924 327.244 294.888 316.151 297.404 303.462H222.302L233.901 237.451H392.971L399.868 190.091H308.836C308.088 182.411 306.193 175.645 303.151 169.794C300.13 163.821 296.023 158.762 290.83 154.617C285.637 150.472 279.398 147.364 272.115 145.292Z" fill="#0EA5E9"/>
</svg>
