<svg width="2048" height="276" viewBox="0 0 2048 276" fill="none" xmlns="http://www.w3.org/2000/svg">
<path d="M443.13 16.059H486.933V187.46C486.853 203.171 483.521 216.701 476.934 228.048C470.348 239.316 461.143 248.005 449.32 254.116C437.576 260.146 423.888 263.162 408.255 263.162C393.972 263.162 381.117 260.622 369.69 255.544C358.343 250.386 349.336 242.768 342.671 232.69C336.005 222.613 332.672 210.075 332.672 195.077H376.594C376.673 201.664 378.101 207.337 380.879 212.099C383.735 216.86 387.663 220.51 392.662 223.049C397.662 225.588 403.415 226.858 409.922 226.858C416.984 226.858 422.975 225.39 427.895 222.454C432.815 219.439 436.544 214.995 439.083 209.123C441.702 203.251 443.051 196.03 443.13 187.46V16.059Z" fill="black"/>
<path d="M649.466 182.937V77.0015H692.554V259.829H650.775V227.334H648.871C644.744 237.571 637.96 245.942 628.517 252.449C619.153 258.956 607.608 262.209 593.88 262.209C581.898 262.209 571.304 259.551 562.099 254.235C552.974 248.839 545.832 241.022 540.674 230.786C535.516 220.47 532.937 208.012 532.937 193.411V77.0015H576.025V186.746C576.025 198.331 579.199 207.536 585.548 214.36C591.896 221.184 600.228 224.597 610.544 224.597C616.892 224.597 623.042 223.049 628.993 219.954C634.944 216.86 639.825 212.257 643.633 206.147C647.522 199.958 649.466 192.221 649.466 182.937Z" fill="black"/>
<path d="M881.363 125.327L842.083 129.612C840.972 125.644 839.028 121.915 836.251 118.423C833.553 114.932 829.903 112.115 825.3 109.972C820.698 107.83 815.064 106.759 808.398 106.759C799.432 106.759 791.893 108.703 785.783 112.591C779.752 116.479 776.776 121.518 776.856 127.708C776.776 133.024 778.721 137.349 782.688 140.682C786.735 144.014 793.401 146.752 802.685 148.895L833.87 155.56C851.169 159.29 864.024 165.201 872.435 173.295C880.926 181.389 885.211 191.983 885.291 205.076C885.211 216.582 881.839 226.739 875.173 235.547C868.587 244.276 859.422 251.1 847.678 256.02C835.933 260.94 822.444 263.4 807.208 263.4C784.831 263.4 766.818 258.718 753.169 249.354C739.521 239.911 731.387 226.779 728.768 209.956L770.785 205.909C772.69 214.162 776.737 220.391 782.926 224.597C789.116 228.802 797.17 230.905 807.089 230.905C817.325 230.905 825.538 228.802 831.728 224.597C837.997 220.391 841.131 215.193 841.131 209.004C841.131 203.767 839.108 199.442 835.061 196.03C831.093 192.618 824.904 189.999 816.492 188.174L785.307 181.627C767.77 177.977 754.796 171.827 746.385 163.178C737.973 154.449 733.807 143.419 733.887 130.088C733.807 118.82 736.862 109.06 743.052 100.807C749.321 92.4751 758.01 86.0476 769.119 81.5246C780.308 76.9221 793.202 74.6209 807.803 74.6209C829.228 74.6209 846.091 79.1837 858.39 88.3092C870.769 97.4347 878.427 109.774 881.363 125.327Z" fill="black"/>
<path d="M1012.12 77.0015V110.329H907.013V77.0015H1012.12ZM932.961 33.1991H976.05V204.838C976.05 210.631 976.922 215.074 978.668 218.169C980.493 221.184 982.874 223.248 985.81 224.358C988.746 225.469 991.999 226.025 995.57 226.025C998.268 226.025 1000.73 225.826 1002.95 225.43C1005.25 225.033 1007 224.676 1008.19 224.358L1015.45 258.043C1013.15 258.837 1009.85 259.71 1005.57 260.662C1001.36 261.614 996.205 262.17 990.095 262.328C979.303 262.646 969.582 261.019 960.933 257.448C952.284 253.798 945.42 248.164 940.341 240.546C935.342 232.928 932.882 223.406 932.961 211.98V33.1991Z" fill="black"/>
<path d="M1216.5 93.9035C1214.52 87.476 1211.78 81.7229 1208.29 76.6444C1204.88 71.4865 1200.75 67.0825 1195.91 63.4323C1191.15 59.7821 1185.68 57.0444 1179.49 55.2193C1173.3 53.3149 1166.55 52.3626 1159.25 52.3626C1146.16 52.3626 1134.49 55.6558 1124.26 62.242C1114.02 68.8282 1105.97 78.5092 1100.09 91.2849C1094.3 103.981 1091.4 119.455 1091.4 137.706C1091.4 156.116 1094.3 171.708 1100.09 184.484C1105.89 197.26 1113.94 206.98 1124.26 213.646C1134.57 220.232 1146.55 223.525 1160.2 223.525C1172.58 223.525 1183.29 221.145 1192.34 216.384C1201.47 211.622 1208.49 204.877 1213.41 196.149C1218.33 187.341 1220.79 177.025 1220.79 165.201L1230.79 166.749H1164.61V132.231H1263.52V161.512C1263.52 182.381 1259.08 200.434 1250.19 215.669C1241.3 230.905 1229.08 242.649 1213.53 250.902C1197.97 259.075 1180.12 263.162 1159.97 263.162C1137.51 263.162 1117.79 258.123 1100.81 248.045C1083.91 237.888 1070.69 223.486 1061.17 204.838C1051.73 186.111 1047.01 163.892 1047.01 138.182C1047.01 118.503 1049.78 100.926 1055.34 85.4525C1060.97 69.9788 1068.83 56.846 1078.91 46.0541C1088.98 35.1829 1100.81 26.9303 1114.38 21.2963C1127.95 15.5829 1142.71 12.7262 1158.66 12.7262C1172.15 12.7262 1184.72 14.71 1196.39 18.6776C1208.05 22.5659 1218.41 28.1205 1227.45 35.3416C1236.58 42.5626 1244.08 51.1327 1249.95 61.0517C1255.82 70.9707 1259.67 81.9213 1261.5 93.9035H1216.5Z" fill="black"/>
<path d="M1420.85 182.937V77.0015H1463.93V259.829H1422.15V227.334H1420.25C1416.12 237.571 1409.34 245.942 1399.9 252.449C1390.53 258.956 1378.99 262.209 1365.26 262.209C1353.28 262.209 1342.68 259.551 1333.48 254.235C1324.35 248.839 1317.21 241.022 1312.05 230.786C1306.9 220.47 1304.32 208.012 1304.32 193.411V77.0015H1347.4V186.746C1347.4 198.331 1350.58 207.536 1356.93 214.36C1363.28 221.184 1371.61 224.597 1381.92 224.597C1388.27 224.597 1394.42 223.049 1400.37 219.954C1406.32 216.86 1411.2 212.257 1415.01 206.147C1418.9 199.958 1420.85 192.221 1420.85 182.937Z" fill="black"/>
<path d="M1508.24 259.829V77.0015H1551.33V259.829H1508.24ZM1529.9 51.0533C1523.08 51.0533 1517.21 48.7918 1512.29 44.2687C1507.37 39.6663 1504.91 34.1513 1504.91 27.7238C1504.91 21.2169 1507.37 15.7019 1512.29 11.1788C1517.21 6.57643 1523.08 4.27522 1529.9 4.27522C1536.81 4.27522 1542.68 6.57643 1547.52 11.1788C1552.44 15.7019 1554.9 21.2169 1554.9 27.7238C1554.9 34.1513 1552.44 39.6663 1547.52 44.2687C1542.68 48.7918 1536.81 51.0533 1529.9 51.0533Z" fill="black"/>
<path d="M1663.48 263.043C1649.12 263.043 1636.27 259.353 1624.92 251.973C1613.57 244.593 1604.61 233.881 1598.02 219.835C1591.43 205.79 1588.14 188.729 1588.14 168.653C1588.14 148.339 1591.47 131.199 1598.14 117.233C1604.88 103.188 1613.97 92.5942 1625.4 85.4525C1636.82 78.2314 1649.56 74.6209 1663.6 74.6209C1674.32 74.6209 1683.12 76.446 1690.03 80.0962C1696.93 83.6671 1702.41 87.9917 1706.45 93.0703C1710.5 98.0695 1713.63 102.791 1715.86 107.235H1717.64V16.059H1760.85V259.829H1718.48V231.024H1715.86C1713.63 235.468 1710.42 240.189 1706.22 245.188C1702.01 250.108 1696.46 254.314 1689.55 257.805C1682.65 261.297 1673.96 263.043 1663.48 263.043ZM1675.51 227.691C1684.63 227.691 1692.41 225.231 1698.84 220.311C1705.26 215.312 1710.14 208.369 1713.48 199.482C1716.81 190.594 1718.48 180.239 1718.48 168.415C1718.48 156.592 1716.81 146.316 1713.48 137.587C1710.22 128.858 1705.38 122.074 1698.95 117.233C1692.61 112.393 1684.79 109.972 1675.51 109.972C1665.9 109.972 1657.89 112.472 1651.46 117.471C1645.03 122.47 1640.19 129.374 1636.94 138.182C1633.69 146.99 1632.06 157.068 1632.06 168.415C1632.06 179.842 1633.69 190.039 1636.94 199.005C1640.27 207.893 1645.15 214.916 1651.58 220.073C1658.09 225.152 1666.06 227.691 1675.51 227.691Z" fill="black"/>
<path d="M1887.7 263.4C1869.37 263.4 1853.54 259.591 1840.21 251.973C1826.96 244.276 1816.76 233.405 1809.62 219.359C1802.48 205.235 1798.91 188.61 1798.91 169.486C1798.91 150.68 1802.48 134.175 1809.62 119.971C1816.84 105.687 1826.92 94.578 1839.85 86.6428C1852.79 78.6282 1867.98 74.6209 1885.44 74.6209C1896.71 74.6209 1907.34 76.446 1917.34 80.0962C1927.42 83.6671 1936.31 89.2217 1944 96.7602C1951.78 104.299 1957.89 113.9 1962.33 125.565C1966.78 137.15 1969 150.958 1969 166.987V180.199H1819.14V151.156H1927.7C1927.62 142.903 1925.83 135.563 1922.34 129.136C1918.85 122.629 1913.97 117.511 1907.7 113.781C1901.51 110.052 1894.29 108.187 1886.04 108.187C1877.23 108.187 1869.49 110.329 1862.83 114.614C1856.16 118.82 1850.96 124.375 1847.23 131.278C1843.58 138.103 1841.72 145.601 1841.64 153.775V179.128C1841.64 189.761 1843.58 198.886 1847.47 206.504C1851.36 214.043 1856.8 219.835 1863.78 223.882C1870.76 227.85 1878.94 229.834 1888.3 229.834C1894.57 229.834 1900.24 228.961 1905.32 227.215C1910.4 225.39 1914.8 222.732 1918.53 219.24C1922.26 215.749 1925.08 211.424 1926.98 206.266L1967.21 210.789C1964.68 221.422 1959.83 230.707 1952.69 238.642C1945.63 246.498 1936.58 252.608 1925.55 256.972C1914.52 261.257 1901.91 263.4 1887.7 263.4Z" fill="black"/>
<path d="M167.449 4.01844C158.581 1.33957 148.574 0 137.427 0C114.984 2.09776e-05 94.6114 5.35768 76.3098 16.0731C58.1588 26.7886 42.8348 42.4155 30.3382 62.9535C17.8678 83.3427 9.0686 108.123 3.94197 137.293C-1.21083 166.611 -1.31185 191.614 3.63823 212.301C8.58831 232.988 18.2422 248.764 32.6006 259.628C46.959 270.493 65.7369 275.924 88.9336 275.924C109.419 275.924 127.317 272.65 142.627 266.102C158.113 259.405 170.619 249.954 180.145 237.751C189.195 226.156 195.257 212.612 198.329 197.121H106.625L120.788 116.531H315.024L323.445 58.712H212.289C211.376 49.336 209.062 41.076 205.347 33.9323C201.658 26.6399 196.643 20.4634 190.302 15.4033C183.961 10.3432 176.343 6.54849 167.449 4.01844Z" fill="#0EA5E9"/>
</svg>
