<svg width="256" height="256" viewBox="0 0 256 256" fill="none" xmlns="http://www.w3.org/2000/svg">
<rect width="255.464" height="255.464" fill="#0F172A"/>
<path d="M136.037 72.6455C132.407 71.5485 128.309 71 123.746 71C114.557 71 106.216 73.1939 98.7232 77.5818C91.2918 81.9697 85.0179 88.3689 79.9015 96.779C74.7959 105.128 71.1933 115.275 69.0944 127.22C66.9847 139.226 66.9434 149.465 68.97 157.936C70.9967 166.407 74.9492 172.867 80.8278 177.316C86.7064 181.765 94.3944 183.989 103.892 183.989C112.279 183.989 119.606 182.648 125.875 179.967C132.215 177.224 137.335 173.355 141.235 168.357C144.941 163.609 147.422 158.063 148.68 151.72H111.135L116.934 118.719H196.457L199.905 95.0422H154.396C154.022 91.2027 153.074 87.8203 151.553 84.8951C150.043 81.9088 147.99 79.3796 145.394 77.3076C142.798 75.2355 139.679 73.6816 136.037 72.6455Z" fill="#0EA5E9"/>
</svg>
