<svg width="256" height="256" viewBox="0 0 256 256" fill="none" xmlns="http://www.w3.org/2000/svg">
<rect width="255.464" height="255.464" fill="white"/>
<path d="M136.038 72.6455C132.408 71.5485 128.31 71 123.747 71C114.558 71 106.217 73.1939 98.7241 77.5818C91.2928 81.9697 85.0189 88.3689 79.9025 96.779C74.7969 105.128 71.1943 115.275 69.0954 127.22C66.9857 139.226 66.9443 149.465 68.971 157.936C70.9977 166.407 74.9502 172.867 80.8288 177.316C86.7074 181.765 94.3954 183.989 103.893 183.989C112.28 183.989 119.607 182.648 125.876 179.967C132.216 177.224 137.336 173.355 141.236 168.357C144.942 163.609 147.423 158.063 148.681 151.72H111.136L116.934 118.719H196.458L199.906 95.0422H154.397C154.023 91.2027 153.075 87.8203 151.554 84.8951C150.044 81.9088 147.991 79.3796 145.395 77.3076C142.799 75.2355 139.68 73.6816 136.038 72.6455Z" fill="#0EA5E9"/>
</svg>
