<svg width="513" height="511" viewBox="0 0 513 511" fill="none" xmlns="http://www.w3.org/2000/svg">
<rect width="511" height="511" fill="#0F172A"/>
<path d="M272.114 145.292C264.851 143.097 256.655 142 247.527 142C229.147 142 212.463 146.388 197.475 155.165C182.61 163.943 170.06 176.743 159.826 193.565C149.613 210.266 142.407 230.563 138.209 254.456C133.989 278.471 133.906 298.951 137.96 315.896C142.014 332.841 149.92 345.763 161.679 354.662C173.438 363.561 188.816 368.01 207.813 368.01C224.59 368.01 239.247 365.328 251.785 359.964C264.468 354.479 274.71 346.738 282.511 336.742C289.923 327.244 294.887 316.151 297.403 303.462H222.301L233.9 237.451H392.97L399.867 190.091H308.835C308.087 182.411 306.192 175.645 303.15 169.794C300.129 163.821 296.022 158.762 290.829 154.617C285.636 150.472 279.397 147.364 272.114 145.292Z" fill="#0EA5E9"/>
</svg>
