<svg width="813" height="847" viewBox="0 0 813 847" fill="none" xmlns="http://www.w3.org/2000/svg">
<rect width="813" height="847" fill="#0F172A"/>
<path d="M413.954 249.228C402.411 245.743 389.386 244 374.877 244C345.665 244 319.147 250.971 295.326 264.912C271.7 278.854 251.754 299.186 235.489 325.908C219.257 352.436 207.804 384.676 201.131 422.629C194.424 460.775 194.292 493.306 200.736 520.221C207.179 547.136 219.744 567.662 238.433 581.797C257.122 595.933 281.564 603 311.757 603C338.421 603 361.717 598.74 381.645 590.22C401.803 581.507 418.08 569.211 430.479 553.333C442.259 538.247 450.149 520.626 454.148 500.47H334.784L353.22 395.617H606.039L617 320.389H472.318C471.13 308.19 468.118 297.443 463.282 288.149C458.48 278.661 451.953 270.625 443.7 264.041C435.446 257.457 425.531 252.52 413.954 249.228Z" fill="#0EA5E9"/>
</svg>
