<svg xmlns="http://www.w3.org/2000/svg" width="1200" height="630" viewBox="0 0 1200 630">
  <!-- Background gradient -->
  <defs>
    <linearGradient id="bg-grad" x1="0%" y1="0%" x2="100%" y2="100%">
      <stop offset="0%" style="stop-color:#0ea5e9"/>
      <stop offset="100%" style="stop-color:#0369a1"/>
    </linearGradient>
  </defs>
  
  <rect width="1200" height="630" fill="url(#bg-grad)"/>
  
  <!-- Logo -->
  <g transform="translate(100, 215)">
    <rect width="80" height="80" rx="16" fill="white" fill-opacity="0.2"/>
    <path d="M40 16C28.95 16 20 24.95 20 36c0 14.4 20 27.2 20 27.2s20-12.8 20-27.2c0-11.05-8.95-20-20-20zm0 28c-3.98 0-7.2-3.22-7.2-7.2s3.22-7.2 7.2-7.2 7.2 3.22 7.2 7.2-3.22 7.2-7.2 7.2z" fill="white"/>
  </g>
  
  <!-- Title -->
  <text x="200" y="260" font-family="DM Sans, system-ui, sans-serif" font-size="64" font-weight="700" fill="white">JustGuide</text>
  
  <!-- Tagline -->
  <text x="100" y="340" font-family="DM Sans, system-ui, sans-serif" font-size="32" fill="white" fill-opacity="0.9">Stop Chasing Bookings. Start Guiding.</text>
  
  <!-- Subtitle -->
  <text x="100" y="400" font-family="DM Sans, system-ui, sans-serif" font-size="24" fill="white" fill-opacity="0.75">Aggregate all your tour bookings automatically</text>
  
  <!-- Platform badges -->
  <g transform="translate(100, 450)">
    <rect x="0" y="0" width="120" height="36" rx="18" fill="white" fill-opacity="0.2"/>
    <text x="60" y="24" font-family="DM Sans, sans-serif" font-size="14" fill="white" text-anchor="middle">Guruwalk</text>
    
    <rect x="135" y="0" width="140" height="36" rx="18" fill="white" fill-opacity="0.2"/>
    <text x="205" y="24" font-family="DM Sans, sans-serif" font-size="14" fill="white" text-anchor="middle">GetYourGuide</text>
    
    <rect x="290" y="0" width="100" height="36" rx="18" fill="white" fill-opacity="0.2"/>
    <text x="340" y="24" font-family="DM Sans, sans-serif" font-size="14" fill="white" text-anchor="middle">Viator</text>
    
    <rect x="405" y="0" width="100" height="36" rx="18" fill="white" fill-opacity="0.2"/>
    <text x="455" y="24" font-family="DM Sans, sans-serif" font-size="14" fill="white" text-anchor="middle">& more</text>
  </g>
  
  <!-- URL -->
  <text x="100" y="580" font-family="DM Sans, system-ui, sans-serif" font-size="20" fill="white" fill-opacity="0.6">justguide.app</text>
</svg>
