<svg width="599" height="511" viewBox="0 0 599 511" fill="none" xmlns="http://www.w3.org/2000/svg">
<path d="M310.106 7.44196C293.682 2.48083 275.149 0 254.507 0C212.943 3.88496e-05 175.215 9.92218 141.321 29.7666C107.706 49.6112 79.3275 78.5517 56.1846 116.587C33.09 154.347 16.7945 200.238 7.30028 254.26C-2.24238 308.557 -2.42947 354.861 6.73778 393.173C15.905 431.484 33.7835 460.7 60.3744 480.82C86.9653 500.941 121.741 511 164.7 511C202.637 511 235.783 504.937 264.136 492.809C292.816 480.406 315.977 462.904 333.617 440.304C350.378 418.83 361.604 393.749 367.293 365.059H197.462L223.692 215.811H583.404L599 108.732H393.146C391.455 91.3681 387.17 76.0709 380.29 62.8412C373.458 49.3359 364.171 37.8974 352.428 28.5263C340.685 19.1552 326.577 12.1275 310.106 7.44196Z" fill="#0EA5E9"/>
</svg>
